<svg width="107" height="24" viewBox="0 0 107 24" fill="none" xmlns="http://www.w3.org/2000/svg">
<path d="M0.915 6.85H2.64L5.34 13.165V6.85H7.395V19H5.73L3.03 12.28V19H0.915V6.85ZM8.80066 6.85H11.2757V11.83H13.4207V6.85H15.8957V19H13.4207V13.615H11.2757V19H8.80066V6.85ZM19.0552 6.85H21.8002L24.1402 19H21.8602L21.4102 16.33H19.4902L19.0252 19H16.7002L19.0552 6.85ZM21.1702 14.8L20.4352 9.91L19.7152 14.8H21.1702ZM19.4602 3.37H21.3802L22.8052 5.83H21.1852L20.4202 4.33L19.6702 5.83H18.0652L19.4602 3.37ZM19.4302 20.02H21.4102V22.015H19.4302V20.02ZM24.9214 6.85H26.6464L29.3464 13.165V6.85H31.4014V19H29.7364L27.0364 12.28V19H24.9214V6.85ZM36.1221 13.345H35.3721V12.175H36.1221V6.85H39.1071C40.1271 6.85 40.9221 6.985 41.4921 7.255C42.0721 7.515 42.4821 7.92 42.7221 8.47C42.9621 9.02 43.0821 9.75 43.0821 10.66V15.085C43.0821 16.015 42.9621 16.765 42.7221 17.335C42.4821 17.895 42.0771 18.315 41.5071 18.595C40.9471 18.865 40.1671 19 39.1671 19H36.1221V13.345ZM39.1821 17.275C39.6121 17.275 39.9271 17.21 40.1271 17.08C40.3371 16.94 40.4671 16.74 40.5171 16.48C40.5771 16.22 40.6071 15.845 40.6071 15.355V10.33C40.6071 9.87 40.5721 9.525 40.5021 9.295C40.4421 9.055 40.3121 8.88 40.1121 8.77C39.9121 8.65 39.5971 8.59 39.1671 8.59H38.5521V12.175H39.3171V13.345H38.5521V17.275H39.1821ZM44.2843 6.85H49.5793V8.56H46.7443V11.785H48.9343V13.51H46.7443V17.32H49.6093V19H44.2843V6.85ZM49.7593 2.29H51.4993L50.1943 4.105H48.9643L49.7593 2.29ZM45.9943 3.37H47.9143L49.3393 5.83H47.7193L46.9543 4.33L46.2043 5.83H44.5993L45.9943 3.37ZM50.4261 6.85H52.1511L54.8511 13.165V6.85H56.9061V19H55.2411L52.5411 12.28V19H50.4261V6.85ZM64.4468 19.195C63.6268 19.195 62.9868 19.05 62.5268 18.76C62.0668 18.46 61.7518 18.04 61.5818 17.5C61.4118 16.96 61.3268 16.285 61.3268 15.475H63.5768C63.5768 16.175 63.6418 16.685 63.7718 17.005C63.9018 17.315 64.1568 17.47 64.5368 17.47C64.8368 17.47 65.0568 17.37 65.1968 17.17C65.3368 16.97 65.4218 16.695 65.4518 16.345C65.4918 15.995 65.5118 15.5 65.5118 14.86C65.5118 14.12 65.4418 13.57 65.3018 13.21C65.1718 12.84 64.8968 12.655 64.4768 12.655C63.9368 12.655 63.5918 13.02 63.4418 13.75H61.4468L61.6118 6.85H67.1918V8.845H63.5018L63.3818 11.53C63.5218 11.36 63.7618 11.22 64.1018 11.11C64.4418 10.99 64.8018 10.93 65.1818 10.93C66.0118 10.93 66.6368 11.265 67.0568 11.935C67.4868 12.605 67.7018 13.545 67.7018 14.755C67.7018 15.715 67.6168 16.515 67.4468 17.155C67.2768 17.785 66.9518 18.285 66.4718 18.655C66.0018 19.015 65.3268 19.195 64.4468 19.195ZM71.8261 19.21C70.7661 19.21 69.9561 18.895 69.3961 18.265C68.8461 17.625 68.5711 16.77 68.5711 15.7V10.255C68.5711 9.145 68.8411 8.275 69.3811 7.645C69.9211 7.005 70.7361 6.685 71.8261 6.685C72.9061 6.685 73.7161 7.005 74.2561 7.645C74.7961 8.275 75.0661 9.145 75.0661 10.255V15.7C75.0661 16.76 74.7861 17.61 74.2261 18.25C73.6661 18.89 72.8661 19.21 71.8261 19.21ZM71.8261 17.17C72.4161 17.17 72.7111 16.665 72.7111 15.655V10.3C72.7111 9.85 72.6511 9.475 72.5311 9.175C72.4211 8.875 72.1861 8.725 71.8261 8.725C71.4461 8.725 71.2011 8.875 71.0911 9.175C70.9811 9.465 70.9261 9.84 70.9261 10.3V15.655C70.9261 16.665 71.2261 17.17 71.8261 17.17ZM79.5206 19.21C78.4606 19.21 77.6506 18.895 77.0906 18.265C76.5406 17.625 76.2656 16.77 76.2656 15.7V10.255C76.2656 9.145 76.5356 8.275 77.0756 7.645C77.6156 7.005 78.4306 6.685 79.5206 6.685C80.6006 6.685 81.4106 7.005 81.9506 7.645C82.4906 8.275 82.7606 9.145 82.7606 10.255V15.7C82.7606 16.76 82.4806 17.61 81.9206 18.25C81.3606 18.89 80.5606 19.21 79.5206 19.21ZM79.5206 17.17C80.1106 17.17 80.4056 16.665 80.4056 15.655V10.3C80.4056 9.85 80.3456 9.475 80.2256 9.175C80.1156 8.875 79.8806 8.725 79.5206 8.725C79.1406 8.725 78.8956 8.875 78.7856 9.175C78.6756 9.465 78.6206 9.84 78.6206 10.3V15.655C78.6206 16.665 78.9206 17.17 79.5206 17.17ZM84.0502 6.85H86.5102V11.98L88.7152 6.85H91.1152L88.8352 12.31L91.2952 19H88.7902L86.9152 13.57L86.5102 14.23V19H84.0502V6.85Z" fill="#F04545"/>
<circle cx="100" cy="12" r="7" fill="#F04545"/>
<path d="M100.939 9.66007H98.9595V8.59329H100.939V8H102.775V8.59329H103.5V9.66007H102.775V16.3631H101.07V15.4732C100.787 15.8192 100.451 16.0779 100.064 16.249C99.6803 16.4163 99.2927 16.5 98.9007 16.5C98.1037 16.5 97.4199 16.2205 96.8493 15.6614C96.2831 15.0985 96 14.3151 96 13.3111C96 12.2842 96.2766 11.5046 96.8297 10.9721C97.3828 10.4359 98.0819 10.1678 98.9268 10.1678C99.7021 10.1678 100.373 10.4492 100.939 11.0121V9.66007ZM97.875 13.2027C97.875 13.8492 97.9774 14.317 98.1821 14.606C98.4782 15.0244 98.892 15.2336 99.4233 15.2336C99.8458 15.2336 100.205 15.0776 100.501 14.7658C100.797 14.4501 100.946 13.9804 100.946 13.3567C100.946 12.6607 100.802 12.1606 100.514 11.8564C100.227 11.5483 99.8589 11.3943 99.4103 11.3943C98.9747 11.3943 98.6089 11.5464 98.3127 11.8507C98.0209 12.1511 97.875 12.6018 97.875 13.2027Z" fill="white"/>
</svg>